<svg xmlns="http://www.w3.org/2000/svg" width="410" height="404" viewBox="0 0 410 404" fill="none">
  <path d="M399.641 59.5246L234.588 396.12C230.382 404.788 218.155 406.872 211.109 399.822L10.387 199.017C2.00892 190.635 5.45958 176.53 16.6482 172.815L370.399 55.1832C382.939 51.0014 405.557 47.3979 399.641 59.5246Z" fill="#646CFF"/>
  <path d="M292.965 13.7621L227.478 79.2494C225.784 80.9437 223.351 81.5422 221.074 80.822L165.993 63.3832C162.105 62.153 160.828 57.2668 163.591 54.504L207.768 10.3262C209.351 8.74225 211.601 8.14924 213.68 8.7708L292.688 32.2726C296.47 33.3782 298.654 37.7547 296.524 40.8851L292.965 13.7621Z" fill="#FFA800"/>
  <path d="M399.641 59.5246L234.588 396.12C230.382 404.788 218.155 406.872 211.109 399.822L10.387 199.017C2.00892 190.635 5.45958 176.53 16.6482 172.815L370.399 55.1832C382.939 51.0014 405.557 47.3979 399.641 59.5246Z" fill="url(#paint0_linear)" fill-opacity="0.35"/>
  <path d="M292.965 13.7621L227.478 79.2494C225.784 80.9437 223.351 81.5422 221.074 80.822L165.993 63.3832C162.105 62.153 160.828 57.2668 163.591 54.504L207.768 10.3262C209.351 8.74225 211.601 8.14924 213.68 8.7708L292.688 32.2726C296.47 33.3782 298.654 37.7547 296.524 40.8851L292.965 13.7621Z" fill="url(#paint1_linear)" fill-opacity="0.35"/>
  <defs>
    <linearGradient id="paint0_linear" x1="-16.8977" y1="-48.5501" x2="354.826" y2="423.57" gradientUnits="userSpaceOnUse">
      <stop stop-color="#FFEA83"/>
      <stop offset="0.0833333" stop-color="#FFDD35"/>
      <stop offset="1" stop-color="#FFA800"/>
    </linearGradient>
    <linearGradient id="paint1_linear" x1="202.592" y1="4.32769" x2="259.822" y2="61.5509" gradientUnits="userSpaceOnUse">
      <stop stop-color="#FFEA83"/>
      <stop offset="0.0833333" stop-color="#FFDD35"/>
      <stop offset="1" stop-color="#FFA800"/>
    </linearGradient>
  </defs>
</svg>
